HIERARCHY
ROOT Hips
{
    OFFSET   0.000000   0.000000   0.000000
    CHANNELS 6 Xposition Yposition Zposition Zrotation Xrotation Yrotation
    JOINT Chest
    {
        OFFSET   0.000000   8.007230   0.000000
        CHANNELS 3 Zrotation Xrotation Yrotation
        JOINT Chest2
        {
            OFFSET   0.000000  22.077100   0.000000
            CHANNELS 3 Zrotation Xrotation Yrotation
            JOINT Neck
            {
                OFFSET   0.000000  23.254800  -0.000021
                CHANNELS 3 Zrotation Xrotation Yrotation
                JOINT Head
                {
                    OFFSET   0.000000  14.370000   1.956610
                    CHANNELS 3 Zrotation Xrotation Yrotation
                    End Site
                    {
                        OFFSET   0.000000  19.566000   0.000000
                    }
                }
            }
            JOINT LeftCollar
            {
                OFFSET   3.911900  19.017000  -0.467063
                CHANNELS 3 Zrotation Xrotation Yrotation
                JOINT LeftShoulder
                {
                    OFFSET  10.383700   0.000000   0.000000
                    CHANNELS 3 Zrotation Xrotation Yrotation
                    JOINT LeftElbow
                    {
                        OFFSET  26.662100   0.001529   0.000325
                        CHANNELS 3 Zrotation Xrotation Yrotation
                        JOINT LeftWrist
                        {
                            OFFSET  28.869000  -0.000011  -0.000096
                            CHANNELS 3 Zrotation Xrotation Yrotation
                            JOINT LeftFinger0
                            {
                                OFFSET   2.044650  -2.323460   3.252850
                                CHANNELS 3 Zrotation Xrotation Yrotation
                                JOINT LeftFinger01
                                {
                                    OFFSET   3.088130   0.000000   0.000000
                                    CHANNELS 3 Zrotation Xrotation Yrotation
                                    JOINT LeftFinger02
                                    {
                                        OFFSET   2.639460   0.000000   0.000000
                                        CHANNELS 3 Zrotation Xrotation Yrotation
                                        End Site
                                        {
                                            OFFSET   2.582190   0.000000   0.000000
                                        }
                                    }
                                }
                            }
                            JOINT LeftFinger1
                            {
                                OFFSET   8.364480   0.000000   3.252850
                                CHANNELS 3 Zrotation Xrotation Yrotation
                                JOINT LeftFinger11
                                {
                                    OFFSET   4.646930   0.000000   0.000000
                                    CHANNELS 3 Zrotation Xrotation Yrotation
                                    JOINT LeftFinger12
                                    {
                                        OFFSET   2.323460   0.000000   0.000000
                                        CHANNELS 3 Zrotation Xrotation Yrotation
                                        End Site
                                        {
                                            OFFSET   2.273050   0.000000   0.000000
                                        }
                                    }
                                }
                            }
                            JOINT LeftFinger2
                            {
                                OFFSET   8.364480   0.000016   1.078090
                                CHANNELS 3 Zrotation Xrotation Yrotation
                                JOINT LeftFinger21
                                {
                                    OFFSET   5.111620   0.000000   0.000000
                                    CHANNELS 3 Zrotation Xrotation Yrotation
                                    JOINT LeftFinger22
                                    {
                                        OFFSET   2.788160   0.000017   0.000000
                                        CHANNELS 3 Zrotation Xrotation Yrotation
                                        End Site
                                        {
                                            OFFSET   2.727660   0.000000   0.000000
                                        }
                                    }
                                }
                            }
                            JOINT LeftFinger3
                            {
                                OFFSET   7.899780   0.000015  -1.078090
                                CHANNELS 3 Zrotation Xrotation Yrotation
                                JOINT LeftFinger31
                                {
                                    OFFSET   4.646920   0.000000   0.000000
                                    CHANNELS 3 Zrotation Xrotation Yrotation
                                    JOINT LeftFinger32
                                    {
                                        OFFSET   2.323470   0.000000   0.000000
                                        CHANNELS 3 Zrotation Xrotation Yrotation
                                        End Site
                                        {
                                            OFFSET   2.273050   0.000000   0.000000
                                        }
                                    }
                                }
                            }
                            JOINT LeftFinger4
                            {
                                OFFSET   7.435090   0.000000  -3.252850
                                CHANNELS 3 Zrotation Xrotation Yrotation
                                JOINT LeftFinger41
                                {
                                    OFFSET   3.717550   0.000000   0.000000
                                    CHANNELS 3 Zrotation Xrotation Yrotation
                                    JOINT LeftFinger42
                                    {
                                        OFFSET   1.858760   0.000000   0.000000
                                        CHANNELS 3 Zrotation Xrotation Yrotation
                                        End Site
                                        {
                                            OFFSET   1.818440   0.000000   0.000000
                                        }
                                    }
                                }
                            }
                        }
                    }
                }
            }
            JOINT RightCollar
            {
                OFFSET  -3.911900  19.017000  -0.467062
                CHANNELS 3 Zrotation Xrotation Yrotation
                JOINT RightShoulder
                {
                    OFFSET -10.383700   0.000015   0.000000
                    CHANNELS 3 Zrotation Xrotation Yrotation
                    JOINT RightElbow
                    {
                        OFFSET -26.662100   0.001341   0.000385
                        CHANNELS 3 Zrotation Xrotation Yrotation
                        JOINT RightWrist
                        {
                            OFFSET -28.869000   0.000025  -0.000080
                            CHANNELS 3 Zrotation Xrotation Yrotation
                            JOINT RightFinger0
                            {
                                OFFSET  -2.044650  -2.323490   3.252850
                                CHANNELS 3 Zrotation Xrotation Yrotation
                                JOINT RightFinger01
                                {
                                    OFFSET  -3.088130   0.000000   0.000000
                                    CHANNELS 3 Zrotation Xrotation Yrotation
                                    JOINT RightFinger02
                                    {
                                        OFFSET  -2.639460   0.000000   0.000000
                                        CHANNELS 3 Zrotation Xrotation Yrotation
                                        End Site
                                        {
                                            OFFSET  -2.582190   0.000000   0.000000
                                        }
                                    }
                                }
                            }
                            JOINT RightFinger1
                            {
                                OFFSET  -8.364480   0.000000   3.252850
                                CHANNELS 3 Zrotation Xrotation Yrotation
                                JOINT RightFinger11
                                {
                                    OFFSET  -4.646930   0.000000   0.000000
                                    CHANNELS 3 Zrotation Xrotation Yrotation
                                    JOINT RightFinger12
                                    {
                                        OFFSET  -2.323470   0.000000   0.000000
                                        CHANNELS 3 Zrotation Xrotation Yrotation
                                        End Site
                                        {
                                            OFFSET  -2.273050   0.000000   0.000000
                                        }
                                    }
                                }
                            }
                            JOINT RightFinger2
                            {
                                OFFSET  -8.364480   0.000000   1.078090
                                CHANNELS 3 Zrotation Xrotation Yrotation
                                JOINT RightFinger21
                                {
                                    OFFSET  -5.111610   0.000000   0.000000
                                    CHANNELS 3 Zrotation Xrotation Yrotation
                                    JOINT RightFinger22
                                    {
                                        OFFSET  -2.788160   0.000000   0.000000
                                        CHANNELS 3 Zrotation Xrotation Yrotation
                                        End Site
                                        {
                                            OFFSET  -2.727660   0.000000   0.000000
                                        }
                                    }
                                }
                            }
                            JOINT RightFinger3
                            {
                                OFFSET  -7.899780   0.000000  -1.078090
                                CHANNELS 3 Zrotation Xrotation Yrotation
                                JOINT RightFinger31
                                {
                                    OFFSET  -4.646920   0.000000   0.000000
                                    CHANNELS 3 Zrotation Xrotation Yrotation
                                    JOINT RightFinger32
                                    {
                                        OFFSET  -2.323470   0.000000   0.000000
                                        CHANNELS 3 Zrotation Xrotation Yrotation
                                        End Site
                                        {
                                            OFFSET  -2.273050   0.000000   0.000000
                                        }
                                    }
                                }
                            }
                            JOINT RightFinger4
                            {
                                OFFSET  -7.435090   0.000000  -3.252850
                                CHANNELS 3 Zrotation Xrotation Yrotation
                                JOINT RightFinger41
                                {
                                    OFFSET  -3.717550   0.000000   0.000000
                                    CHANNELS 3 Zrotation Xrotation Yrotation
                                    JOINT RightFinger42
                                    {
                                        OFFSET  -1.858770   0.000000   0.000000
                                        CHANNELS 3 Zrotation Xrotation Yrotation
                                        End Site
                                        {
                                            OFFSET  -1.818440   0.000000   0.000000
                                        }
                                    }
                                }
                            }
                        }
                    }
                }
            }
        }
    }
    JOINT LeftHip
    {
        OFFSET   9.783010   0.000000   0.000000
        CHANNELS 3 Zrotation Xrotation Yrotation
        JOINT LeftKnee
        {
            OFFSET   0.000070 -41.789100   0.000028
            CHANNELS 3 Zrotation Xrotation Yrotation
            JOINT LeftAnkle
            {
                OFFSET   0.000087 -41.133200  -0.000100
                CHANNELS 3 Zrotation Xrotation Yrotation
                JOINT LeftToe
                {
                    OFFSET   0.000000  -6.358960  14.674500
                    CHANNELS 3 Zrotation Xrotation Yrotation
                    End Site
                    {
                        OFFSET   0.000000   0.000000   3.913200
                    }
                }
            }
        }
    }
    JOINT RightHip
    {
        OFFSET  -9.783020   0.000000   0.000000
        CHANNELS 3 Zrotation Xrotation Yrotation
        JOINT RightKnee
        {
            OFFSET   0.000044 -41.789100  -0.000870
            CHANNELS 3 Zrotation Xrotation Yrotation
            JOINT RightAnkle
            {
                OFFSET  -0.000090 -41.133200  -0.000245
                CHANNELS 3 Zrotation Xrotation Yrotation
                JOINT RightToe
                {
                    OFFSET   0.000000  -6.358960  14.674500
                    CHANNELS 3 Zrotation Xrotation Yrotation
                    End Site
                    {
                        OFFSET   0.000000   0.000000   3.913200
                    }
                }
            }
        }
    }
}
MOTION
Frames: 4
Frame Time:   0.016667
 10.633800  89.608800  -0.445069 -13.887200 -25.292800 -26.612600  -3.359270  16.005800  -1.832940  -6.571690  32.088900  -2.816020   5.766450   0.583407  -0.058975   9.474620   1.148470  17.774500  -0.745728 -10.333100  -2.072430 -25.586100  35.826700 -96.128200  22.580700   8.875360 -39.139100  63.638000  12.075500 -27.283400  63.040600  54.379800 -99.387400 -32.624700  -0.003412   0.008526 -11.312300   0.000555  -0.003677 -12.569400   3.525970 -15.386500 -10.676700   0.004205   0.011205  -7.473700   0.003283   0.007661  -9.091910   1.535620  -9.266660  -9.220850   0.026881   0.014527  -6.141100   0.016101   0.011900  -6.661600   0.781545  -6.485300  -6.707550   0.024410   0.008314  -4.467210   0.014311   0.006947  -9.171760  -0.777727   4.901760 -13.805000   0.034594   0.007223  -9.194090   0.018866   0.009517  10.866400  -7.834090   6.650560  47.652800  -3.013770  55.939100 -22.801800   4.129480  28.826800 -79.109500  39.110300  33.129600 -38.812200  29.552800  64.861600  27.550600  -0.000161  -0.000556   8.775280  -0.000045  -0.000479   4.823120  -0.253316  -3.073770   3.934870  -0.016427  -0.010520   2.754430  -0.011913  -0.010282   3.401350  -0.527423  -8.976210   3.428800  -0.011694  -0.009956   2.283570  -0.010536  -0.005745   4.750590  -1.226580 -14.367700   4.901370  -0.005557  -0.008335   3.264320  -0.007456  -0.006466   9.308550  -2.374940 -14.226100  14.408000  -0.010001  -0.011545   9.595750  -0.007417  -0.013196  -4.355020  27.353300   6.026370  -1.264880   1.809430  22.505300   1.134270  -6.876260  13.126400  -0.000000   0.000000  -0.000000  -2.401510  13.871000  -5.804100  -5.634860  24.400000  -0.098078  -3.952410  -7.480500  15.961700  -0.000000   0.000000   0.000000
 10.540500  89.623900  -0.450782 -13.686700 -25.081800 -26.353800  -3.344660  15.949900  -1.809220  -6.547380  31.975600  -2.773290   5.695250   0.400895  -0.040039   9.355680   0.790331  17.775800  -0.883214 -10.348500  -2.213090 -25.969500  36.263500 -94.942900  22.717900   9.185710 -39.156800  62.647800  12.238500 -26.485400  63.298500  54.468800 -99.044100 -32.904700  -0.002215   0.008544 -11.452300   0.000563  -0.003793 -13.138200   3.803240 -15.745100 -11.181400   0.004125   0.020110  -7.826990   0.003201   0.015034  -9.858080   1.677700  -9.328400  -9.999260   0.038313   0.025864  -6.659510   0.022668   0.020786  -7.536530   0.902069  -6.533750  -7.589950   0.032435   0.016886  -5.054890   0.020135   0.013649  -9.918630  -0.866689   5.077700 -14.932200   0.044032   0.014730  -9.944860   0.022321   0.015507  11.167300  -7.934760   6.850810  47.305300  -2.610020  55.126600 -22.599600   4.174050  28.871900 -76.935000  38.829600  31.143900 -39.263100  30.186700  65.475200  27.189900  -0.000101  -0.000287   8.594940   0.000000  -0.000518   5.178240  -0.159504  -1.947470   4.210220  -0.026966  -0.016730   2.947150  -0.019582  -0.010465   3.673150  -0.513870  -8.204390   3.692220  -0.016977  -0.016116   2.459020  -0.011870  -0.010328   5.169030  -1.332790 -14.424300   5.331060  -0.010689  -0.012539   3.550500  -0.007478  -0.007611   9.503490  -2.442640 -14.281900  14.704500  -0.020108  -0.013868   9.793160  -0.014841  -0.013366  -4.271220  27.148200   5.868440  -1.245880   1.713460  22.436600   1.051230  -6.794410  13.096700   0.000000   0.000000  -0.000000  -2.279290  13.746900  -5.822150  -5.646120  24.193500  -0.055983  -4.054770  -7.345680  15.582400   0.000000   0.000000   0.000000
 10.438600  89.640000  -0.456387 -13.459800 -24.831200 -26.055900  -3.325810  15.873400  -1.777460  -6.516270  31.820600  -2.715960   5.624050   0.183428  -0.018095   9.237720   0.362604  17.692000  -1.035000 -10.303900  -2.356070 -26.610000  36.758100 -93.382300  22.833400   9.619430 -39.331300  61.393200  12.305700 -25.432000  63.396000  54.522000 -98.560700 -33.204100  -0.000989   0.008545 -11.602000   0.000565  -0.003909 -14.661500   4.450140 -16.286900 -12.513500   0.004043   0.026310  -8.759480   0.003158   0.019602 -11.755700   1.947840  -9.120330 -11.910100   0.036717   0.028873  -7.932120   0.018743   0.022980  -9.407960   1.149030  -6.629520  -9.465730   0.031077   0.019367  -6.304160   0.022676   0.015479 -11.340400  -0.998755   5.082660 -17.073800   0.040730   0.017785 -11.371200   0.019590   0.017576  11.494500  -7.996180   7.082230  46.944400  -2.188220  54.098500 -22.273100   4.041990  29.073100 -74.433500  38.540400  28.949000 -39.513500  30.572600  66.026900  27.027000   0.000003  -0.000089   8.513500   0.000000  -0.000547   6.054820  -0.031307  -0.292223   4.924280  -0.030462  -0.018758   3.446980  -0.022135  -0.011044   4.384380  -0.535109  -7.150540   4.401890  -0.017547  -0.018718   2.931650  -0.012314  -0.012161   5.931920  -1.481770 -14.124000   6.100880  -0.011345  -0.015549   4.063210  -0.007736  -0.011384  10.231300  -2.569290 -13.971700  15.805000  -0.022385  -0.019439  10.526100  -0.016933  -0.013587  -4.164770  26.906100   5.707990  -1.224580   1.607490  22.357900   0.957533  -6.703130  13.039600  -0.000000   0.000000   0.000000  -2.141850  13.607000  -5.849720  -5.644850  23.945800  -0.036302  -4.148490  -7.196190  15.189900  -0.000000   0.000000  -0.000000
 10.320900  89.658800  -0.461496 -13.213200 -24.547400 -25.728400  -3.302250  15.777200  -1.738240  -6.477180  31.625900  -2.645340   5.548530  -0.055991   0.005443   9.113380  -0.108918  17.511600  -1.197300 -10.211500  -2.487560 -27.410500  37.293000 -91.546500  22.950300  10.112900 -39.636200  59.836200  12.245200 -24.135700  63.491900  54.585400 -97.934800 -33.511300   0.000265   0.008547 -11.755600   0.000566  -0.004025 -16.905500   5.352840 -16.791800 -14.474700   0.003958   0.036196 -10.132300   0.003028   0.026509 -14.191400   2.275230  -8.759180 -14.370200   0.035121   0.034111  -9.570550   0.014124   0.026503 -11.762800   1.470320  -6.745050 -11.849700   0.029719   0.025325  -7.891900   0.024069   0.019650 -13.102700  -1.141810   5.083580 -19.728300   0.037428   0.024142 -13.139100   0.016477   0.021716  11.836200  -8.017120   7.340750  46.584700  -1.744900  52.881400 -21.900100   3.802940  29.439400 -71.508800  38.114800  26.424900 -39.607900  30.863900  66.586100  26.968800   0.000071   0.000000   8.484420   0.000000  -0.000652   7.616240   0.236173   1.696880   6.204990  -0.038816  -0.023511   4.343480  -0.028264  -0.014367   5.763960  -0.596276  -6.052060   5.783360  -0.018116  -0.026113   3.851700  -0.013276  -0.016655   7.272280  -1.748420 -13.590700   7.475220  -0.012001  -0.020861   4.978520  -0.009455  -0.015492  11.722400  -2.814440 -13.412700  18.071800  -0.026449  -0.026255  12.035800  -0.021829  -0.013721  -4.039020  26.633700   5.549180  -1.202920   1.493960  22.270300   0.855521  -6.605440  12.960100   0.000000   0.000000   0.000000  -1.996320  13.452200  -5.886110  -5.632400  23.667400  -0.031874  -4.241200  -7.034150  14.793800   0.000000   0.000000  -0.000000
